<svg xmlns="http://www.w3.org/2000/svg" viewBox="0 0 187.2 176.16"><defs><style>.cls-1{fill:#fff;}</style></defs><title>asset-3</title><g id="Layer_2" data-name="Layer 2"><g id="Layer_1-2" data-name="Layer 1"><path class="cls-1" d="M169.78,27.56a56.24,56.24,0,0,0-40.08-16.72h-.1a56.24,56.24,0,0,0-40,16.58l-.3.32C73.76,45.86,69.78,69.19,77.79,95.21a118.08,118.08,0,0,0,7.74,18.91,17.35,17.35,0,1,0,9.81-5.91A106,106,0,0,1,88.7,91.85c-6.87-22.32-3.8-41.33,9.1-56.51a44.89,44.89,0,0,1,31.8-13.08h.08a44.9,44.9,0,0,1,32,13.35C179.18,53.23,179,82,161.18,99.8L99.85,161a8.9,8.9,0,0,1-12.56,0L26,99.73C8.32,82,8,53.33,25.31,35.71A45,45,0,0,1,49.08,23a17.4,17.4,0,1,0,1-11.73,56.28,56.28,0,0,0-33,16.47c-21.67,22.07-21.33,58,.77,80.1l61.28,61.28a20.33,20.33,0,0,0,28.7,0l61.34-61.23C191.46,85.66,191.7,49.63,169.78,27.56Zm-67.24,93a6,6,0,1,1-3.65-1.26A6,6,0,0,1,102.54,120.52Zm-30.66-102a6,6,0,1,1-6-6A6,6,0,0,1,71.88,18.53Z"/><path class="cls-1" d="M93.57,176.16a21.29,21.29,0,0,1-15.16-6.27L17.13,108.61C-5.4,86.07-5.75,49.42,16.36,26.91a57.1,57.1,0,0,1,33-16.72,18.52,18.52,0,1,1-1.07,14.09A43.77,43.77,0,0,0,26.12,36.51C9.25,53.68,9.56,81.69,26.81,98.93l61.28,61.28a7.76,7.76,0,0,0,11,0L160.38,99c17.33-17.33,17.56-45.41.5-62.59a44.06,44.06,0,0,0-62.27-.26C86,50.94,83,69.59,89.78,91.52A104,104,0,0,0,96,106.94a18.55,18.55,0,1,1-11.79,7A118.55,118.55,0,0,1,76.7,95.54C68.58,69.13,72.63,45.43,88.41,27l.33-.36a57.75,57.75,0,0,1,81.84.11c22.36,22.51,22.12,59.26-.53,81.92L108.72,169.9A21.29,21.29,0,0,1,93.57,176.16ZM65.9,2.27a16.33,16.33,0,0,0-14.76,9.44l-.26.57-.62.08A54.84,54.84,0,0,0,18,28.5c-21.24,21.63-20.9,56.84.76,78.5L80,168.29a19.2,19.2,0,0,0,27.1,0l61.34-61.23c21.77-21.77,22-57.08.53-78.71h0a55.48,55.48,0,0,0-78.6-.14l-.27.29C74.88,46.29,71,69.25,78.87,94.87a116.47,116.47,0,0,0,7.67,18.72l.34.67-.48.58a16.21,16.21,0,1,0,9.17-5.52l-.85.18-.39-.78a106.84,106.84,0,0,1-6.71-16.53c-7-22.71-3.85-42.09,9.32-57.58a46.33,46.33,0,0,1,65.55.2c17.94,18.06,17.71,47.58-.5,65.79l-61.33,61.22a10,10,0,0,1-14.16,0L25.21,100.54C7.08,82.41,6.77,53,24.5,34.92A46,46,0,0,1,48.87,21.85l1-.2.27,1A16.26,16.26,0,1,0,65.9,2.27Zm33,130.07a7.11,7.11,0,0,1,0-14.22,7.13,7.13,0,0,1,7.11,7.11A7.12,7.12,0,0,1,98.89,132.34Zm0-12a4.86,4.86,0,1,0,3,1h0A4.78,4.78,0,0,0,98.89,120.39Zm-33-94.75A7.11,7.11,0,1,1,73,18.53,7.1,7.1,0,0,1,65.9,25.64Zm0-12a4.84,4.84,0,1,0,4.84,4.84A4.8,4.8,0,0,0,65.9,13.69Z"/><path class="cls-1" d="M93.57,176.16a21.29,21.29,0,0,1-15.16-6.27L17.13,108.61C-5.4,86.07-5.75,49.42,16.36,26.91a57.1,57.1,0,0,1,33-16.72,18.52,18.52,0,1,1-1.07,14.09A43.77,43.77,0,0,0,26.12,36.51C9.25,53.68,9.56,81.69,26.81,98.93l61.28,61.28a7.76,7.76,0,0,0,11,0L160.38,99c17.33-17.33,17.56-45.41.5-62.59a44.06,44.06,0,0,0-62.27-.26C86,50.94,83,69.59,89.78,91.52A104,104,0,0,0,96,106.94a18.55,18.55,0,1,1-11.79,7A118.55,118.55,0,0,1,76.7,95.54C68.58,69.13,72.63,45.43,88.41,27l.33-.36a57.75,57.75,0,0,1,81.84.11c22.36,22.51,22.12,59.26-.53,81.92L108.72,169.9A21.29,21.29,0,0,1,93.57,176.16ZM65.9,2.27a16.33,16.33,0,0,0-14.76,9.44l-.26.57-.62.08A54.84,54.84,0,0,0,18,28.5c-21.24,21.63-20.9,56.84.76,78.5L80,168.29a19.2,19.2,0,0,0,27.1,0l61.34-61.23c21.77-21.77,22-57.08.53-78.71h0a55.48,55.48,0,0,0-78.6-.14l-.27.29C74.88,46.29,71,69.25,78.87,94.87a116.47,116.47,0,0,0,7.67,18.72l.34.67-.48.58a16.21,16.21,0,1,0,9.17-5.52l-.85.18-.39-.78a106.84,106.84,0,0,1-6.71-16.53c-7-22.71-3.85-42.09,9.32-57.58a46.33,46.33,0,0,1,65.55.2c17.94,18.06,17.71,47.58-.5,65.79l-61.33,61.22a10,10,0,0,1-14.16,0L25.21,100.54C7.08,82.41,6.77,53,24.5,34.92A46,46,0,0,1,48.87,21.85l1-.2.27,1A16.26,16.26,0,1,0,65.9,2.27Zm33,130.07a7.11,7.11,0,0,1,0-14.22,7.13,7.13,0,0,1,7.11,7.11A7.12,7.12,0,0,1,98.89,132.34Zm0-12a4.86,4.86,0,1,0,3,1h0A4.78,4.78,0,0,0,98.89,120.39Zm-33-94.75A7.11,7.11,0,1,1,73,18.53,7.1,7.1,0,0,1,65.9,25.64Zm0-12a4.84,4.84,0,1,0,4.84,4.84A4.8,4.8,0,0,0,65.9,13.69Z"/></g></g></svg>