<svg xmlns="http://www.w3.org/2000/svg" viewBox="0 0 618.72 176.18"><defs><style>.cls-1{fill:#ff5a5f;}.cls-2{fill:none;stroke:#ff5a5f;stroke-miterlimit:10;}</style></defs><title>Asset 4</title><g id="Layer_2" data-name="Layer 2"><g id="Layer_1-2" data-name="Layer 1"><path class="cls-1" d="M606.91,62.54H604.7v7.27a1.34,1.34,0,0,1-.28.93.94.94,0,0,1-.72.3,1,1,0,0,1-.73-.31,1.33,1.33,0,0,1-.28-.93V62.54h-2.21a1.12,1.12,0,0,1-.77-.23.85.85,0,0,1,0-1.22,1.14,1.14,0,0,1,.76-.22h6.45a1.14,1.14,0,0,1,.78.23.79.79,0,0,1,.26.61.77.77,0,0,1-.26.6A1.15,1.15,0,0,1,606.91,62.54Z"/><path class="cls-1" d="M612.53,69.37,610.93,63v6.91a1.26,1.26,0,0,1-.26.86.94.94,0,0,1-1.35,0,1.25,1.25,0,0,1-.26-.86V62a1,1,0,0,1,.34-.88,1.64,1.64,0,0,1,.92-.23H611a2.4,2.4,0,0,1,.82.1.69.69,0,0,1,.38.37,5.7,5.7,0,0,1,.28.87l1.45,5.48,1.46-5.48a5.7,5.7,0,0,1,.28-.87A.69.69,0,0,1,616,61a2.4,2.4,0,0,1,.82-.1h.63a1.64,1.64,0,0,1,.92.23,1,1,0,0,1,.34.88v7.92a1.26,1.26,0,0,1-.26.86.87.87,0,0,1-.69.29.86.86,0,0,1-.66-.29,1.25,1.25,0,0,1-.26-.86V63l-1.61,6.38c-.1.42-.19.72-.26.91a1.26,1.26,0,0,1-.37.53,1.07,1.07,0,0,1-.74.24,1.11,1.11,0,0,1-.6-.15,1.1,1.1,0,0,1-.38-.39,2.25,2.25,0,0,1-.21-.53Z"/><path class="cls-1" d="M170.41,27.12A56.66,56.66,0,0,0,130,10.27h-.1A56.66,56.66,0,0,0,89.6,27l-.3.33c-15.64,18.25-19.64,41.76-11.57,68a119,119,0,0,0,7.8,19,17.48,17.48,0,1,0,9.89-6,106.74,106.74,0,0,1-6.69-16.48C81.8,69.41,84.89,50.25,97.89,35a45.22,45.22,0,0,1,32-13.18H130a45.23,45.23,0,0,1,32.23,13.45C179.87,53,179.65,82,161.74,99.9L100,161.58a9,9,0,0,1-12.65,0L25.56,99.84C7.74,82,7.43,53.08,24.86,35.33A45.3,45.3,0,0,1,48.81,22.49a17.53,17.53,0,1,0,1-11.82,56.7,56.7,0,0,0-33.2,16.6C-5.18,49.51-4.84,85.71,17.43,108L79.16,169.7a20.48,20.48,0,0,0,28.92,0L169.87,108C192.25,85.66,192.49,49.36,170.41,27.12Zm-67.74,93.65A6,6,0,1,1,99,119.5,6,6,0,0,1,102.67,120.77ZM71.77,18a6,6,0,1,1-6-6A6,6,0,0,1,71.77,18Z"/><path class="cls-2" d="M170.41,27.12A56.66,56.66,0,0,0,130,10.27h-.1A56.66,56.66,0,0,0,89.6,27l-.3.33c-15.64,18.25-19.64,41.76-11.57,68a119,119,0,0,0,7.8,19,17.48,17.48,0,1,0,9.89-6,106.74,106.74,0,0,1-6.69-16.48C81.8,69.41,84.89,50.25,97.89,35a45.22,45.22,0,0,1,32-13.18H130a45.23,45.23,0,0,1,32.23,13.45C179.87,53,179.65,82,161.74,99.9L100,161.58a9,9,0,0,1-12.65,0L25.56,99.84C7.74,82,7.43,53.08,24.86,35.33A45.3,45.3,0,0,1,48.81,22.49a17.53,17.53,0,1,0,1-11.82,56.7,56.7,0,0,0-33.2,16.6C-5.18,49.51-4.84,85.71,17.43,108L79.16,169.7a20.48,20.48,0,0,0,28.92,0L169.87,108C192.25,85.66,192.49,49.36,170.41,27.12Zm-67.74,93.65A6,6,0,1,1,99,119.5,6,6,0,0,1,102.67,120.77ZM71.77,18a6,6,0,1,1-6-6A6,6,0,0,1,71.77,18Z"/><path class="cls-1" d="M263.66,56.73a9.23,9.23,0,0,0-2.7-3.52,7.1,7.1,0,0,0-4.53-1.49h-1a7.1,7.1,0,0,0-4.53,1.49,9.24,9.24,0,0,0-2.71,3.55l-24.78,58.49a6.86,6.86,0,0,0-.62,2.62,6,6,0,0,0,1.7,4.32h0a5.89,5.89,0,0,0,4.41,1.8,6.17,6.17,0,0,0,3.43-1,6.43,6.43,0,0,0,2.36-2.78l5.87-14.08H271.3l5.89,14.14a6.38,6.38,0,0,0,2.33,2.72,6.17,6.17,0,0,0,3.43,1,5.89,5.89,0,0,0,4.41-1.8,6,6,0,0,0,1.7-4.32,6.92,6.92,0,0,0-.62-2.62Zm2.79,37.82h-21l10.5-25.29Z"/><path class="cls-1" d="M333.28,70a6.28,6.28,0,0,0-5.6,3.63l-13.24,33.58L301.15,73.53a6.12,6.12,0,0,0-9.93-1.7,6.1,6.1,0,0,0-1.75,4.37,7.05,7.05,0,0,0,.62,2.71L307,119.34a7.82,7.82,0,0,0,2.73,3.3h0a7.22,7.22,0,0,0,4.2,1.33h1a7.22,7.22,0,0,0,4.21-1.33,7.86,7.86,0,0,0,2.74-3.33l16.9-40.42a7.07,7.07,0,0,0,.62-2.71,6.1,6.1,0,0,0-1.75-4.37A5.93,5.93,0,0,0,333.28,70Z"/><path class="cls-1" d="M382.91,72.93a30,30,0,0,0-27.86,0,23.61,23.61,0,0,0-9.38,9.79A30.58,30.58,0,0,0,342.42,97a30.56,30.56,0,0,0,3.26,14.26,23.59,23.59,0,0,0,9.38,9.79h0a30,30,0,0,0,27.86,0,23.92,23.92,0,0,0,9.42-9.78A30.2,30.2,0,0,0,395.64,97a30.2,30.2,0,0,0-3.31-14.27A23.93,23.93,0,0,0,382.91,72.93Zm-7,38.33a15.21,15.21,0,0,1-13.77,0,12.89,12.89,0,0,1-5.26-5.15,18.17,18.17,0,0,1-2.09-9.22,18,18,0,0,1,2.09-9.13,12.41,12.41,0,0,1,5.24-5.1A15.58,15.58,0,0,1,369,81a15.38,15.38,0,0,1,6.86,1.62,12.7,12.7,0,0,1,5.3,5.11,17.63,17.63,0,0,1,2.13,9.11,17.85,17.85,0,0,1-2.13,9.21A13.19,13.19,0,0,1,375.87,111.26Z"/><path class="cls-1" d="M429.94,81.24a17.33,17.33,0,0,1,5.15.65,35.49,35.49,0,0,1,5.18,2.25,5.42,5.42,0,0,0,6.83-1,5.57,5.57,0,0,0,1.58-3.85,5.63,5.63,0,0,0-2.75-4.87,35.48,35.48,0,0,0-7.3-3.53,28.75,28.75,0,0,0-9.47-1.41,29.23,29.23,0,0,0-13.73,3.31,25.75,25.75,0,0,0-10.15,9.57,27.66,27.66,0,0,0-3.8,14.6,27.65,27.65,0,0,0,3.8,14.6,25.73,25.73,0,0,0,10.15,9.57,29.22,29.22,0,0,0,13.73,3.31,28.75,28.75,0,0,0,9.47-1.41,35.55,35.55,0,0,0,7.32-3.53,5.6,5.6,0,0,0,1.16-8.71,5.17,5.17,0,0,0-3.86-1.78,6.11,6.11,0,0,0-2.94.78,35.55,35.55,0,0,1-5.22,2.27,17.38,17.38,0,0,1-5.15.65c-5.13,0-9-1.4-11.88-4.29s-4.26-6.64-4.26-11.45,1.39-8.56,4.26-11.45S424.81,81.24,429.94,81.24Z"/><path class="cls-1" d="M497.45,70a6.09,6.09,0,0,0-4.36,1.75,5.92,5.92,0,0,0-1.85,4.36v28.53a29.4,29.4,0,0,1-6.45,6,13.63,13.63,0,0,1-7.74,2.24c-6.18,0-8.94-3.12-8.94-10.11V76.09A6.06,6.06,0,0,0,462,70a6.09,6.09,0,0,0-4.36,1.75,5.92,5.92,0,0,0-1.85,4.36v27.59A23.81,23.81,0,0,0,458,114.05a18.2,18.2,0,0,0,6.65,7.61h0a18.59,18.59,0,0,0,10.22,2.8,21.93,21.93,0,0,0,11-2.66,32.12,32.12,0,0,0,5.37-3.85,6.22,6.22,0,0,0,6.21,6,5.92,5.92,0,0,0,4.36-1.85,6.1,6.1,0,0,0,1.75-4.37V76.09A6.06,6.06,0,0,0,497.45,70Z"/><path class="cls-1" d="M541.75,69.49h-.49c-4.9,0-9.44,2.08-13.53,6.19a6.22,6.22,0,0,0-6.19-5.7,5.92,5.92,0,0,0-4.36,1.84,6.09,6.09,0,0,0-1.75,4.37v41.68a6.05,6.05,0,0,0,6.11,6.11,6.11,6.11,0,0,0,4.37-1.75,5.92,5.92,0,0,0,1.84-4.36v-29a17.93,17.93,0,0,1,5.65-5.3,14.93,14.93,0,0,1,7.67-2h.49a6.25,6.25,0,0,0,4.39-1.63,5.68,5.68,0,0,0,1.82-4.29,6,6,0,0,0-1.7-4.32A5.85,5.85,0,0,0,541.75,69.49Z"/><path class="cls-1" d="M590.71,109.32a5.61,5.61,0,0,0-2.53.57,27.94,27.94,0,0,1-5.62,2.1,27.51,27.51,0,0,1-6.71.72c-4.65,0-8.29-1.13-10.79-3.35a13.35,13.35,0,0,1-4.17-7.54h30.89A6,6,0,0,0,598,95.72a29.35,29.35,0,0,0-2.9-13,23.5,23.5,0,0,0-8.59-9.64,24.41,24.41,0,0,0-13.37-3.63,24.13,24.13,0,0,0-13.91,3.9,23.44,23.44,0,0,0-8.39,10.17A33.53,33.53,0,0,0,548.17,97c0,8.6,2.41,15.4,7.16,20.21s11.4,7.27,19.75,7.27A32.06,32.06,0,0,0,592.94,120c2.81-1.62,3.4-3.67,3.4-5.1a5.29,5.29,0,0,0-1.73-4A5.61,5.61,0,0,0,590.71,109.32ZM560.79,91.16a13.06,13.06,0,0,1,1.94-5.26,11.24,11.24,0,0,1,4.63-4.1,13.13,13.13,0,0,1,11.54,0,11.73,11.73,0,0,1,4.69,4.12,12.83,12.83,0,0,1,2,5.24Z"/></g></g></svg>