<svg xmlns="http://www.w3.org/2000/svg" viewBox="0 0 376.8 260.93"><defs><style>.cls-1{fill:#00a699;}.cls-2{fill:#e4eaf8;}.cls-3{fill:#72b1bb;}.cls-4{fill:#edeada;}.cls-5{fill:#ff5a5f;}.cls-6{fill:#38454f;}.cls-7{fill:#afb6bb;}.cls-8{fill:#839594;}.cls-9{fill:#cec9ae;}.cls-10{fill:#f7f7f7;}.cls-11{fill:#e0e0e0;}.cls-12{fill:#616161;}.cls-13{fill:#5f487b;}.cls-14{fill:#ffd7a3;}.cls-15{fill:#fdc88e;}.cls-16{fill:#ffe1b2;}.cls-17{fill:#7e5449;}.cls-18{fill:#484848;}.cls-19{fill:#d0d7dc;}.cls-20{fill:#039385;}.cls-21{fill:#e4ebf0;}.cls-22{fill:#b1b1b1;}.cls-23{opacity:0.74;}.cls-23,.cls-25{isolation:isolate;}.cls-24{fill:#fff;}.cls-26{fill:#bdbdbd;}</style></defs><title>asset-20</title><g id="Layer_2" data-name="Layer 2"><g id="Layer_1-2" data-name="Layer 1"><g id="Layer_2-2" data-name="Layer 2"><g id="Layer_1-2-2" data-name="Layer 1-2"><path class="cls-1" d="M209.25,14.56V58.92a3.37,3.37,0,0,1-3.37,3.37H165.71a3.37,3.37,0,0,1-3.37-3.37V3.37A3.37,3.37,0,0,1,165.71,0h29Z"/><rect class="cls-2" x="170.64" y="23.05" width="6.9" height="6.9" rx="0.92" ry="0.92"/><path class="cls-2" d="M181.93,23h10.89a1,1,0,0,1,1,1h0a1,1,0,0,1-1,1H181.93a1,1,0,0,1-1-1h0A1,1,0,0,1,181.93,23Z"/><path class="cls-3" d="M181.93,28h15.75a1,1,0,0,1,1,1h0a1,1,0,0,1-1,1H181.93a1,1,0,0,1-1-1h0A1,1,0,0,1,181.93,28Z"/><rect class="cls-2" x="170.64" y="35.09" width="6.9" height="6.9" rx="0.84" ry="0.84"/><rect class="cls-2" x="180.93" y="35.09" width="12.89" height="1.99" rx="0.99" ry="0.99"/><rect class="cls-3" x="180.93" y="40" width="17.75" height="1.99" rx="0.99" ry="0.99"/><rect class="cls-2" x="170.64" y="47.13" width="6.9" height="6.9" rx="0.84" ry="0.84"/><rect class="cls-2" x="180.93" y="47.13" width="12.89" height="1.99" rx="0.99" ry="0.99"/><rect class="cls-3" x="180.93" y="52.04" width="17.75" height="1.99" rx="0.99" ry="0.99"/><path class="cls-3" d="M209.25,14.56h-12A2.54,2.54,0,0,1,194.69,12s0,0,0,0V0Z"/><path class="cls-4" d="M209.91,241.25H161.67a1.66,1.66,0,0,1-1.66-1.66h0V204.43h51.55V239.6A1.66,1.66,0,0,1,209.91,241.25Z"/><path class="cls-5" d="M211.57,204.42H160v-8a1.66,1.66,0,0,1,1.66-1.66H209.9a1.66,1.66,0,0,1,1.66,1.66h0Z"/><circle class="cls-6" cx="177.51" cy="198.48" r="1.84"/><circle class="cls-6" cx="183.03" cy="198.48" r="1.84"/><circle class="cls-6" cx="188.56" cy="198.48" r="1.84"/><circle class="cls-6" cx="194.08" cy="198.48" r="1.84"/><path class="cls-7" d="M194.08,190.19a4.56,4.56,0,0,0-2.76.94,4.62,4.62,0,0,1,1.21,1.38,2.76,2.76,0,1,1,1.55,5,.92.92,0,1,0,0,1.84h0a4.61,4.61,0,1,0,0-9.21Z"/><path class="cls-8" d="M190.11,192.51a4.54,4.54,0,0,0-.63,2.28h1.84A2.76,2.76,0,0,0,190.11,192.51Z"/><path class="cls-8" d="M184.58,192.51a4.54,4.54,0,0,0-.63,2.28h1.84A2.76,2.76,0,0,0,184.58,192.51Z"/><path class="cls-7" d="M192.53,192.51a4.62,4.62,0,0,0-1.21-1.38,4.51,4.51,0,0,0-5.52,0,4.62,4.62,0,0,1,1.21,1.38,2.76,2.76,0,1,1,1.55,5,.92.92,0,1,0,0,1.84h0a4.61,4.61,0,0,0,4.6-4.6A4.54,4.54,0,0,0,192.53,192.51Z"/><path class="cls-8" d="M179.06,192.51a4.54,4.54,0,0,0-.63,2.28h1.84A2.76,2.76,0,0,0,179.06,192.51Z"/><path class="cls-7" d="M187,192.51a4.62,4.62,0,0,0-1.21-1.38,4.51,4.51,0,0,0-5.52,0,4.62,4.62,0,0,1,1.21,1.38,2.76,2.76,0,1,1,1.55,5,.92.92,0,0,0,0,1.84,4.61,4.61,0,0,0,4.6-4.6A4.54,4.54,0,0,0,187,192.51Z"/><path class="cls-7" d="M181.48,192.51a4.62,4.62,0,0,0-1.21-1.38,4.56,4.56,0,0,0-2.76-.94,4.61,4.61,0,0,0-4.6,4.6h1.84a2.76,2.76,0,1,1,2.76,2.76h0a.92.92,0,1,0,0,1.84h0a4.61,4.61,0,0,0,4.6-4.6A4.54,4.54,0,0,0,181.48,192.51Z"/><circle class="cls-9" cx="171.06" cy="214.55" r="4.6"/><circle class="cls-9" cx="185.79" cy="214.55" r="4.6"/><circle class="cls-9" cx="200.52" cy="214.55" r="4.6"/><circle class="cls-9" cx="171.06" cy="229.28" r="4.6"/><circle class="cls-9" cx="185.79" cy="229.28" r="4.6"/><circle class="cls-1" cx="200.52" cy="229.28" r="4.6"/><polygon class="cls-4" points="314.62 160.51 314.62 98.33 346.78 98.33 346.78 106.9 359.65 106.9 359.65 115.48 376.8 115.48 376.8 160.51 314.62 160.51"/><rect class="cls-10" x="334.99" y="139.07" width="10.72" height="21.44"/><rect class="cls-11" x="345.71" y="139.07" width="10.72" height="21.44"/><rect class="cls-12" x="314.62" y="134.78" width="62.18" height="4.29"/><rect class="cls-12" x="314.62" y="156.22" width="20.37" height="4.29"/><rect class="cls-12" x="356.43" y="156.22" width="20.37" height="4.29"/><rect class="cls-9" x="321.05" y="102.61" width="6.43" height="10.72"/><rect class="cls-9" x="321.05" y="119.77" width="6.43" height="10.72"/><rect class="cls-9" x="333.91" y="102.61" width="6.43" height="10.72"/><rect class="cls-9" x="333.91" y="119.77" width="6.43" height="10.72"/><rect class="cls-9" x="346.78" y="111.19" width="6.43" height="19.3"/><polygon class="cls-5" points="370.37 122.98 367.15 122.98 367.15 119.77 362.86 119.77 362.86 122.98 359.65 122.98 359.65 127.27 362.86 127.27 362.86 130.49 367.15 130.49 367.15 127.27 370.37 127.27 370.37 122.98"/><rect class="cls-10" x="316.52" y="146.57" width="10.12" height="2.14" transform="matrix(0.53, -0.85, 0.85, 0.53, 25.86, 341.97)"/><rect class="cls-10" x="322.95" y="146.57" width="10.12" height="2.14" transform="matrix(0.53, -0.85, 0.85, 0.53, 28.89, 347.42)"/><rect class="cls-10" x="358.33" y="146.56" width="10.12" height="2.14" transform="matrix(0.53, -0.85, 0.85, 0.53, 45.5, 377.4)"/><rect class="cls-10" x="364.77" y="146.58" width="10.12" height="2.14" transform="matrix(0.53, -0.85, 0.85, 0.53, 48.51, 382.87)"/><rect class="cls-13" x="340.35" y="148.71" width="2.14" height="3.22"/><rect class="cls-13" x="348.92" y="148.71" width="2.14" height="3.22"/><path class="cls-14" d="M19.77,142.46c3-1.9,2.62-7.54,2.62-8.86h23.7c0,1.32-.37,7,2.58,8.86L34.24,158.63Z"/><path class="cls-15" d="M43.46,148.09l5.21-5.63c-3-1.9-2.58-7.54-2.58-8.86H22.39C24.09,138.49,35.34,146.88,43.46,148.09Z"/><path class="cls-16" d="M52.68,116.49c0,10.55-6.07,23.7-18.44,23.7S15.8,127,15.8,116.49,24.06,102,34.24,102,52.68,105.94,52.68,116.49Z"/><path class="cls-16" d="M16.42,118.79c-2-.49-3.27.56-3.27,2.63,0,2.74,2.65,9.47,5.45,5.27S16.42,118.79,16.42,118.79Z"/><path class="cls-16" d="M51.72,118.79c2.15-.49,3.57.56,3.57,2.63,0,2.74-2.9,9.47-5.94,5.27S51.72,118.79,51.72,118.79Z"/><path class="cls-17" d="M19.75,111.22c-.55,1.58-1.32,10.54-1.32,10.54L15.8,120.3l-.74-9.65Z"/><path class="cls-17" d="M48.72,111.22c.55,1.58,1.32,10.54,1.32,10.54l2.63-1.46.74-9.65Z"/><path class="cls-1" d="M40.83,171.75H27.61l-10.46-30,1.08-.34c4.43,3.39,10.76,8,16,8s11.53-4.63,16-8l1.08.34Z"/><path class="cls-18" d="M36.87,153.36a1.32,1.32,0,0,1-1.32,1.32H32.92a1.32,1.32,0,0,1-1.32-1.32h0v-2.63a1.32,1.32,0,0,1,1.32-1.32h2.63a1.32,1.32,0,0,1,1.32,1.32h0Z"/><circle class="cls-19" cx="34.24" cy="161.26" r="1.32"/><path class="cls-20" d="M34.24,149.41l-5.49,5.49a1.32,1.32,0,0,1-1.87,0l-.13-.16L17.12,141.5l3.07-3.07a1.32,1.32,0,0,1,1.81,0Z"/><path class="cls-20" d="M34.24,149.41l5.49,5.49a1.32,1.32,0,0,0,1.87,0l.13-.16,9.63-13.24-3.07-3.07a1.32,1.32,0,0,0-1.81,0Z"/><polygon class="cls-18" points="36.05 153.94 34.24 154.68 32.43 153.94 31.61 171.79 34.24 171.79 36.87 171.79 36.05 153.94"/><path class="cls-21" d="M65,171.75a3.94,3.94,0,0,0,3.49-3.9V157.78a15.41,15.41,0,0,0-10-13.75l-7.18-2.3h0l-10.44,30H65Z"/><path class="cls-21" d="M17.21,141.73h0L10,144A15.41,15.41,0,0,0,0,157.78v10.07a3.94,3.94,0,0,0,3.49,3.9H27.65Z"/><path class="cls-19" d="M27.65,171.75H19.76l-8.51-14.89a1.31,1.31,0,0,1,.11-1.74L14.49,152l-2.71-1.8a1.3,1.3,0,0,1-.26-2l5.3-6.42.3-.35.08.23Z"/><path class="cls-19" d="M57.23,156.91,48.72,171.8H40.83l10.46-30,.08-.23.3.35,5.3,6.42a1.3,1.3,0,0,1-.26,2L54,152l3.13,3.13A1.31,1.31,0,0,1,57.23,156.91Z"/><path class="cls-21" d="M54,111.22H14.49c0-7,.58-10,2.2-16.76,12.41-6.32,22.7-6.32,35.11,0C53.42,101.54,54,104.2,54,111.22Z"/><path class="cls-22" d="M134.69,221H50.22a16.64,16.64,0,0,1-16.55-16.55v-15a.5.5,0,0,1,1,0v15A15.64,15.64,0,0,0,50.22,220h84.47a.5.5,0,0,1,0,1Z"/><polygon class="cls-22" points="133.23 215.47 141.86 220.46 133.23 225.45 133.23 215.47"/><path class="cls-22" d="M329.66,221H231.48a.5.5,0,1,1,0-1h98.18a15.64,15.64,0,0,0,15.55-15.55V190.86a.5.5,0,0,1,1,0v13.55A16.64,16.64,0,0,1,329.66,221Z"/><polygon class="cls-22" points="340.72 192.32 345.71 183.68 350.69 192.32 340.72 192.32"/><path class="cls-22" d="M345.71,77a.5.5,0,0,1-.5-.5V57.11a15.64,15.64,0,0,0-15.55-15.55H233.31a.5.5,0,0,1,0-1h96.35a16.64,16.64,0,0,1,16.55,16.55V76.55A.5.5,0,0,1,345.71,77Z"/><polygon class="cls-22" points="234.76 46.05 226.13 41.06 234.76 36.08 234.76 46.05"/><path class="cls-22" d="M34.17,66.23a.5.5,0,0,1-.5-.5V57.12A16.64,16.64,0,0,1,50.22,40.56h92.54a.5.5,0,0,1,0,1H50.22A15.64,15.64,0,0,0,34.67,57.12v8.61A.5.5,0,0,1,34.17,66.23Z"/><polygon class="cls-22" points="39.16 64.27 34.17 72.91 29.18 64.27 39.16 64.27"/><g class="cls-23"><circle class="cls-24" cx="63.89" cy="164.4" r="13.27"/><path class="cls-22" d="M63.89,177.79a13.4,13.4,0,1,1,13.4-13.39A13.41,13.41,0,0,1,63.89,177.79Zm0-26.54A13.15,13.15,0,1,0,77,164.4,13.16,13.16,0,0,0,63.89,151.25Z"/></g><polygon class="cls-4" points="64.47 155.03 57.6 161.41 57.6 162.79 57.6 171.75 71.34 171.75 71.34 162.79 71.34 161.41 64.47 155.03"/><path class="cls-12" d="M66.56,171.75H62.38v-5.07a2.09,2.09,0,0,1,2.09-2.09h0a2.09,2.09,0,0,1,2.09,2.09Z"/><path class="cls-5" d="M56.11,163.79a1,1,0,0,1-.68-1.73l8.36-7.76a1,1,0,0,1,1.36,0l8.36,7.76a1,1,0,0,1-1.36,1.47l-7.68-7.13-7.68,7.13A1,1,0,0,1,56.11,163.79Z"/><path class="cls-5" d="M262.76,124.47h-.52v1.71a.32.32,0,0,1-.07.22.24.24,0,0,1-.34,0,.31.31,0,0,1-.07-.22v-1.71h-.52a.26.26,0,0,1-.18-.05.2.2,0,0,1,0-.28h0a.27.27,0,0,1,.18-.05h1.52a.27.27,0,0,1,.18.05.19.19,0,0,1,0,.28A.27.27,0,0,1,262.76,124.47Z"/><path class="cls-5" d="M264.09,126.08l-.38-1.5v1.63a.3.3,0,0,1-.06.2.22.22,0,0,1-.31,0h0a.29.29,0,0,1-.06-.2v-1.87a.23.23,0,0,1,.08-.21.39.39,0,0,1,.22-.05h.15a.57.57,0,0,1,.19,0,.16.16,0,0,1,.09.09,1.34,1.34,0,0,1,.07.2l.34,1.29.34-1.29a1.34,1.34,0,0,1,.07-.2.16.16,0,0,1,.09-.09.57.57,0,0,1,.19,0h.15a.39.39,0,0,1,.22.05.23.23,0,0,1,.08.21v1.87a.3.3,0,0,1-.06.2.21.21,0,0,1-.16.07.2.2,0,0,1-.16-.07.29.29,0,0,1-.06-.2v-1.63l-.38,1.5c0,.1,0,.17-.06.21a.3.3,0,0,1-.09.12.25.25,0,0,1-.17.06.17.17,0,0,1-.23-.09.53.53,0,0,1,0-.12Z"/><path class="cls-5" d="M160,116.14a13.34,13.34,0,0,0-9.5-4h0a13.34,13.34,0,0,0-9.5,4l-.07.08c-3.68,4.3-4.62,9.83-2.72,16a28,28,0,0,0,1.84,4.48,4.12,4.12,0,1,0,2.33-1.4,25.13,25.13,0,0,1-1.57-3.88c-1.63-5.29-.9-9.8,2.16-13.4a10.65,10.65,0,0,1,7.54-3.1h0A10.65,10.65,0,0,1,158.1,118a10.8,10.8,0,0,1-.12,15.22l-14.55,14.52a2.11,2.11,0,0,1-3,0l0,0L125.9,133.26a10.82,10.82,0,0,1-.17-15.18,10.66,10.66,0,0,1,5.64-3,4.13,4.13,0,1,0,.25-2.78,13.35,13.35,0,0,0-7.82,3.91,13.53,13.53,0,0,0,.18,19l14.53,14.53a4.82,4.82,0,0,0,6.81,0l14.55-14.52A13.52,13.52,0,0,0,160,116.14Zm-15.95,22a1.41,1.41,0,1,1-.87-.3,1.41,1.41,0,0,1,.87.3ZM136.79,114a1.42,1.42,0,1,1-1.42-1.42h0A1.42,1.42,0,0,1,136.79,114Z"/><path class="cls-5" d="M141.92,151.65a5.3,5.3,0,0,1-3.76-1.55l-14.53-14.53a14.09,14.09,0,0,1-.19-19.7,13.92,13.92,0,0,1,7.85-4,4.63,4.63,0,1,1-.26,3.82,10.11,10.11,0,0,0-4.94,2.77,10.36,10.36,0,0,0,.17,14.47l14.53,14.53a1.72,1.72,0,0,0,1.15.48,1.6,1.6,0,0,0,1.14-.48l14.55-14.52a10.33,10.33,0,0,0,.12-14.52,10.21,10.21,0,0,0-7.22-3h0a10.08,10.08,0,0,0-7.16,3c-2.92,3.43-3.61,7.78-2,12.9a24.67,24.67,0,0,0,1.38,3.47,4.62,4.62,0,1,1-3.2,1.9,28.64,28.64,0,0,1-1.73-4.28c-2-6.34-1-12,2.82-16.47l.07-.08a13.94,13.94,0,0,1,9.86-4.13h0a13.92,13.92,0,0,1,9.86,4.15h0a14,14,0,0,1-.13,19.79l-14.55,14.52A5.3,5.3,0,0,1,141.92,151.65Zm-6.54-41.24a3.64,3.64,0,0,0-3.3,2.1l-.12.25-.27,0a12.91,12.91,0,0,0-7.53,3.76,13.08,13.08,0,0,0,.17,18.3l14.53,14.53a4.33,4.33,0,0,0,6.1,0l14.55-14.52a13,13,0,0,0,.13-18.38h0a12.92,12.92,0,0,0-9.14-3.85h0a12.92,12.92,0,0,0-9.13,3.81l0,.06c-3.56,4.16-4.47,9.53-2.62,15.52a27.64,27.64,0,0,0,1.81,4.4l.15.29-.21.25a3.62,3.62,0,1,0,2-1.23l-.37.08-.17-.34a25.69,25.69,0,0,1-1.6-4c-1.68-5.46-.92-10.13,2.26-13.87a11.09,11.09,0,0,1,7.89-3.28h0a11.22,11.22,0,0,1,7.81,19.25l-14.55,14.52a2.59,2.59,0,0,1-1.84.77h0a2.59,2.59,0,0,1-1.84-.75l-14.55-14.55a11.37,11.37,0,0,1-.18-15.88,11.11,11.11,0,0,1,5.91-3.15l.46-.09.12.45a3.63,3.63,0,1,0,3.52-4.55Zm7.81,30.75a1.91,1.91,0,0,1-1.5-3.09,1.88,1.88,0,0,1,1.65-.72l-.12-.47,1.15.87a1.91,1.91,0,0,1-1.18,3.41Zm0-2.82a.9.9,0,0,0-.7.35.91.91,0,1,0,1.43,1.12.91.91,0,0,0,0-1.09l-.19-.16A.91.91,0,0,0,143.17,138.34Zm-7.8-22.42a1.92,1.92,0,1,1,1.92-1.92A1.92,1.92,0,0,1,135.37,115.92Zm0-2.84a.92.92,0,1,0,.92.92A.92.92,0,0,0,135.37,113.08Z"/><path class="cls-5" d="M182,123.11a2.17,2.17,0,0,0-.63-.83,1.67,1.67,0,0,0-1.07-.35H180a1.67,1.67,0,0,0-1.07.35,2.17,2.17,0,0,0-.64.84l-5.83,13.77a1.61,1.61,0,0,0-.15.62,1.42,1.42,0,0,0,.4,1h0a1.39,1.39,0,0,0,1,.42,1.45,1.45,0,0,0,.81-.24,1.51,1.51,0,0,0,.55-.65l1.38-3.32h7.23l1.39,3.33a1.5,1.5,0,0,0,.55.64,1.45,1.45,0,0,0,.81.24,1.39,1.39,0,0,0,1-.42,1.42,1.42,0,0,0,.4-1,1.63,1.63,0,0,0-.15-.62Zm.66,8.9h-4.95l2.47-6Z"/><path class="cls-5" d="M198.35,126.23a1.48,1.48,0,0,0-1.32.85L193.91,135l-3.13-7.93a1.44,1.44,0,0,0-2.75.6,1.66,1.66,0,0,0,.15.64l4,9.52a1.84,1.84,0,0,0,.64.78h0a1.7,1.7,0,0,0,1,.31H194a1.7,1.7,0,0,0,1-.31,1.85,1.85,0,0,0,.65-.78l4-9.51a1.66,1.66,0,0,0,.15-.64,1.44,1.44,0,0,0-.41-1A1.4,1.4,0,0,0,198.35,126.23Z"/><path class="cls-5" d="M210,126.92a7,7,0,0,0-6.56,0,5.56,5.56,0,0,0-2.21,2.31,7.73,7.73,0,0,0,0,6.71,5.55,5.55,0,0,0,2.21,2.31h0a7.05,7.05,0,0,0,6.56,0,5.63,5.63,0,0,0,2.22-2.3,7.63,7.63,0,0,0,0-6.72A5.63,5.63,0,0,0,210,126.92Zm-1.66,9a3.58,3.58,0,0,1-3.24,0,3,3,0,0,1-1.24-1.21,4.28,4.28,0,0,1-.49-2.17,4.23,4.23,0,0,1,.49-2.15,2.92,2.92,0,0,1,1.23-1.2,3.67,3.67,0,0,1,1.64-.38,3.62,3.62,0,0,1,1.61.38,3,3,0,0,1,1.25,1.2,4.15,4.15,0,0,1,.5,2.15,4.2,4.2,0,0,1-.5,2.17,3.1,3.1,0,0,1-1.22,1.23Z"/><path class="cls-5" d="M221.1,128.87a4.08,4.08,0,0,1,1.21.15,8.35,8.35,0,0,1,1.22.53,1.28,1.28,0,0,0,1.61-.23,1.33,1.33,0,0,0-.28-2.06,8.35,8.35,0,0,0-1.72-.83,6.77,6.77,0,0,0-2.23-.33,6.88,6.88,0,0,0-3.23.78,6.06,6.06,0,0,0-2.39,2.25,7,7,0,0,0,0,6.88,6.06,6.06,0,0,0,2.39,2.25,6.88,6.88,0,0,0,3.23.78,6.77,6.77,0,0,0,2.23-.33,8.37,8.37,0,0,0,1.72-.83,1.32,1.32,0,0,0,.27-2.05,1.22,1.22,0,0,0-.91-.42,1.44,1.44,0,0,0-.69.18,8.37,8.37,0,0,1-1.23.53,4.09,4.09,0,0,1-1.21.15,3.72,3.72,0,0,1-2.8-1,4.13,4.13,0,0,1,0-5.39A3.72,3.72,0,0,1,221.1,128.87Z"/><path class="cls-5" d="M237,126.23a1.43,1.43,0,0,0-1,.41,1.39,1.39,0,0,0-.43,1v6.72a6.92,6.92,0,0,1-1.52,1.4,3.21,3.21,0,0,1-1.82.53c-1.46,0-2.11-.73-2.11-2.38v-6.27a1.43,1.43,0,0,0-1.42-1.44h0a1.43,1.43,0,0,0-1,.41,1.39,1.39,0,0,0-.43,1v6.49a5.61,5.61,0,0,0,.53,2.44,4.28,4.28,0,0,0,1.57,1.79h0a4.38,4.38,0,0,0,2.41.66,5.16,5.16,0,0,0,2.58-.63,7.56,7.56,0,0,0,1.26-.91,1.46,1.46,0,0,0,1.46,1.42,1.39,1.39,0,0,0,1-.43,1.44,1.44,0,0,0,.41-1v-9.81a1.43,1.43,0,0,0-1.42-1.44h0Z"/><path class="cls-5" d="M247.43,126.11h-.11a4.43,4.43,0,0,0-3.18,1.46,1.47,1.47,0,0,0-1.46-1.34,1.39,1.39,0,0,0-1,.43,1.43,1.43,0,0,0-.41,1v9.81a1.43,1.43,0,0,0,1.42,1.44h0a1.44,1.44,0,0,0,1-.41,1.39,1.39,0,0,0,.43-1v-6.83a4.22,4.22,0,0,1,1.33-1.25,3.51,3.51,0,0,1,1.8-.48h.11a1.47,1.47,0,0,0,1-.38,1.34,1.34,0,0,0,.43-1,1.42,1.42,0,0,0-.4-1A1.38,1.38,0,0,0,247.43,126.11Z"/><path class="cls-5" d="M259,135.49a1.32,1.32,0,0,0-.6.13,6.58,6.58,0,0,1-1.32.5,6.48,6.48,0,0,1-1.58.17,3.72,3.72,0,0,1-2.54-.79,3.14,3.14,0,0,1-1-1.78h7.27a1.41,1.41,0,0,0,1.46-1.36s0-.05,0-.08a6.91,6.91,0,0,0-.68-3,5.53,5.53,0,0,0-2-2.27,5.75,5.75,0,0,0-3.15-.85,5.68,5.68,0,0,0-3.27.92,5.52,5.52,0,0,0-2,2.39,7.89,7.89,0,0,0-.63,3.16,6.52,6.52,0,0,0,1.68,4.76,6.26,6.26,0,0,0,4.65,1.71A7.55,7.55,0,0,0,259.5,138a1.37,1.37,0,0,0,.8-1.2,1.25,1.25,0,0,0-.41-.94A1.32,1.32,0,0,0,259,135.49Zm-7-4.28a3.08,3.08,0,0,1,.46-1.24,2.65,2.65,0,0,1,1.09-1,3.09,3.09,0,0,1,2.72,0,2.76,2.76,0,0,1,1.11,1,3,3,0,0,1,.46,1.23Z"/><g class="cls-25"><g class="cls-25"><path class="cls-12" d="M132.07,259.76a3.19,3.19,0,0,1-1.12.87,3.58,3.58,0,0,1-2.77,0,3.25,3.25,0,0,1-1.77-1.77,3.48,3.48,0,0,1,0-2.64,3.26,3.26,0,0,1,1.77-1.77,3.37,3.37,0,0,1,1.33-.26,3.22,3.22,0,0,1,1.35.27,3.16,3.16,0,0,1,1,.78l-.85.82a2.27,2.27,0,0,0-.66-.53,1.86,1.86,0,0,0-.88-.2,2.25,2.25,0,0,0-.84.16,2,2,0,0,0-.68.44,2.09,2.09,0,0,0-.46.69,2.51,2.51,0,0,0,0,1.82,2.08,2.08,0,0,0,.46.69,2,2,0,0,0,.68.44,2.25,2.25,0,0,0,.84.16,2,2,0,0,0,1-.22,2.33,2.33,0,0,0,.74-.62Z"/></g><g class="cls-25"><path class="cls-12" d="M136,260.93a3.37,3.37,0,0,1-1.33-.26,3.24,3.24,0,0,1-1.76-1.77,3.49,3.49,0,0,1,0-2.62,3.24,3.24,0,0,1,1.76-1.78,3.53,3.53,0,0,1,2.66,0,3.23,3.23,0,0,1,1.76,1.78,3.49,3.49,0,0,1,0,2.62,3.24,3.24,0,0,1-1.76,1.77A3.37,3.37,0,0,1,136,260.93Zm0-1.14a2.16,2.16,0,0,0,.84-.16,2.09,2.09,0,0,0,.68-.45,2,2,0,0,0,.46-.69,2.52,2.52,0,0,0,0-1.8,2,2,0,0,0-.46-.69,2.11,2.11,0,0,0-.68-.45,2.26,2.26,0,0,0-1.67,0,2.11,2.11,0,0,0-.68.45,2,2,0,0,0-.46.69,2.52,2.52,0,0,0,0,1.8,2,2,0,0,0,.46.69,2.09,2.09,0,0,0,.68.45A2.16,2.16,0,0,0,136,259.79Z"/><path class="cls-12" d="M140.29,254.39h1.4l2.57,4.29h.07l-.07-1.23v-3.06h1.2v6.4H144.2l-2.72-4.53h-.07l.07,1.23v3.3h-1.19Z"/><path class="cls-12" d="M148.71,260.93a2.62,2.62,0,0,1-.79-.12,2.26,2.26,0,0,1-.69-.35,2.4,2.4,0,0,1-.55-.57,2.77,2.77,0,0,1-.37-.78l1.14-.45a1.73,1.73,0,0,0,.44.8,1.11,1.11,0,0,0,.82.32,1.31,1.31,0,0,0,.36,0,1.06,1.06,0,0,0,.31-.14.69.69,0,0,0,.22-.24.66.66,0,0,0,.08-.33.8.8,0,0,0-.06-.32.76.76,0,0,0-.21-.27,1.92,1.92,0,0,0-.38-.24,6,6,0,0,0-.59-.24l-.39-.14a3,3,0,0,1-.52-.24,2.28,2.28,0,0,1-.48-.37,1.8,1.8,0,0,1-.35-.5,1.5,1.5,0,0,1-.14-.66,1.68,1.68,0,0,1,.15-.7,1.72,1.72,0,0,1,.42-.57,2,2,0,0,1,.65-.38,2.44,2.44,0,0,1,.84-.14,2.41,2.41,0,0,1,.84.13,2.05,2.05,0,0,1,.6.33,1.88,1.88,0,0,1,.4.44,2.17,2.17,0,0,1,.22.46l-1.06.45a1.13,1.13,0,0,0-.33-.48.93.93,0,0,0-.65-.21,1.1,1.1,0,0,0-.65.18.56.56,0,0,0-.26.48.6.6,0,0,0,.25.49,2.73,2.73,0,0,0,.8.39l.4.13a4.57,4.57,0,0,1,.7.31,2.21,2.21,0,0,1,.54.42,1.7,1.7,0,0,1,.35.55,2,2,0,0,1,.12.71,1.76,1.76,0,0,1-.2.86,1.84,1.84,0,0,1-.51.59,2.22,2.22,0,0,1-.71.35A2.69,2.69,0,0,1,148.71,260.93Z"/><path class="cls-12" d="M154.24,260.93a2.75,2.75,0,0,1-1-.18,2.11,2.11,0,0,1-.78-.53,2.45,2.45,0,0,1-.5-.84,3.33,3.33,0,0,1-.18-1.13v-3.85H153v3.92a2,2,0,0,0,.08.59,1.32,1.32,0,0,0,.24.46,1.11,1.11,0,0,0,.4.31,1.3,1.3,0,0,0,.55.11,1.32,1.32,0,0,0,.56-.11,1.11,1.11,0,0,0,.4-.31,1.33,1.33,0,0,0,.24-.46,2,2,0,0,0,.08-.59v-3.92h1.21v3.85a3.28,3.28,0,0,1-.17,1.09,2.41,2.41,0,0,1-.5.85,2.27,2.27,0,0,1-.79.55A2.61,2.61,0,0,1,154.24,260.93Z"/></g><g class="cls-25"><path class="cls-12" d="M157.88,254.39h1.21v5.26h2.71v1.14h-3.92Z"/></g><g class="cls-25"><path class="cls-12" d="M163.34,260.79v-5.26h-1.79v-1.14h4.78v1.14h-1.79v5.26Z"/><path class="cls-12" d="M167.95,254.39h1.38l2.41,6.4H170.4l-.53-1.53H167.4l-.53,1.53h-1.33Zm1.53,3.76-.57-1.6-.23-.78h-.07l-.23.78-.57,1.6Z"/></g><g class="cls-25"><path class="cls-12" d="M173.79,260.79v-5.26H172v-1.14h4.78v1.14H175v5.26Z"/></g><g class="cls-25"><path class="cls-12" d="M177.64,254.39h1.21v6.4h-1.21Z"/></g><g class="cls-25"><path class="cls-12" d="M183.08,260.93a3.37,3.37,0,0,1-1.33-.26A3.24,3.24,0,0,1,180,258.9a3.49,3.49,0,0,1,0-2.62,3.24,3.24,0,0,1,1.76-1.78,3.53,3.53,0,0,1,2.66,0,3.23,3.23,0,0,1,1.76,1.78,3.49,3.49,0,0,1,0,2.62,3.24,3.24,0,0,1-1.76,1.77A3.37,3.37,0,0,1,183.08,260.93Zm0-1.14a2.16,2.16,0,0,0,.84-.16,2.09,2.09,0,0,0,.68-.45,2,2,0,0,0,.46-.69,2.52,2.52,0,0,0,0-1.8,2,2,0,0,0-.46-.69,2.11,2.11,0,0,0-.68-.45,2.26,2.26,0,0,0-1.67,0,2.11,2.11,0,0,0-.68.45,2,2,0,0,0-.46.69,2.52,2.52,0,0,0,0,1.8,2,2,0,0,0,.46.69,2.09,2.09,0,0,0,.68.45A2.16,2.16,0,0,0,183.08,259.79Z"/><path class="cls-12" d="M187.4,254.39h1.4l2.57,4.29h.07l-.07-1.23v-3.06h1.2v6.4h-1.27l-2.72-4.53h-.07l.07,1.23v3.3H187.4Z"/></g><g class="cls-25"><path class="cls-26" d="M195.83,254.39h2.5a2.25,2.25,0,0,1,.77.13,2,2,0,0,1,.62.36,1.71,1.71,0,0,1,.42.53,1.54,1.54,0,0,1-.09,1.51,1.61,1.61,0,0,1-.61.52v.07a1.74,1.74,0,0,1,.79.56,1.48,1.48,0,0,1,.3.94,1.6,1.6,0,0,1-.17.74,1.71,1.71,0,0,1-.45.56,2.09,2.09,0,0,1-.67.36,2.61,2.61,0,0,1-.82.13h-2.59Zm2.41,2.61a.87.87,0,0,0,.65-.23.75.75,0,0,0,0-1.08.83.83,0,0,0-.62-.22H197V257Zm.13,2.68a1,1,0,0,0,.7-.23.77.77,0,0,0,.24-.58.79.79,0,0,0-.25-.59,1,1,0,0,0-.73-.24H197v1.65Z"/></g><g class="cls-25"><path class="cls-26" d="M203.23,254.39h1.38l2.41,6.4h-1.33l-.53-1.53h-2.47l-.53,1.53h-1.33Zm1.53,3.76-.57-1.6-.23-.78h-.07l-.23.78-.57,1.6Z"/></g><g class="cls-25"><path class="cls-26" d="M213.18,259.76a3.19,3.19,0,0,1-1.12.87,3.58,3.58,0,0,1-2.77,0,3.24,3.24,0,0,1-1.77-1.77,3.48,3.48,0,0,1,0-2.64,3.25,3.25,0,0,1,1.77-1.77,3.37,3.37,0,0,1,1.33-.26,3.22,3.22,0,0,1,1.35.27,3.16,3.16,0,0,1,1,.78l-.85.82a2.26,2.26,0,0,0-.66-.53,1.86,1.86,0,0,0-.88-.2,2.25,2.25,0,0,0-.84.16,2,2,0,0,0-.68.44,2.08,2.08,0,0,0-.46.69,2.51,2.51,0,0,0,0,1.82,2.07,2.07,0,0,0,.46.69,2,2,0,0,0,.68.44,2.25,2.25,0,0,0,.84.16,2,2,0,0,0,1-.22,2.34,2.34,0,0,0,.74-.62Z"/><path class="cls-26" d="M214.15,254.39h1.21v2.75h.07l2.34-2.75h1.46v.07l-2.32,2.65,2.56,3.61v.07H218l-1.9-2.73-.73.85v1.88h-1.21Z"/></g><g class="cls-25"><path class="cls-26" d="M223.69,254.39h1.38l2.41,6.4h-1.33l-.53-1.53h-2.47l-.53,1.53h-1.33Zm1.53,3.76-.57-1.6-.23-.78h-.07l-.23.78-.57,1.6Z"/></g><g class="cls-25"><path class="cls-26" d="M229,260.79v-5.26h-1.79v-1.14H232v1.14h-1.79v5.26Z"/></g><g class="cls-25"><path class="cls-26" d="M234.82,254.39H236v2.56h2.69v-2.56h1.21v6.4h-1.21v-2.7H236v2.7h-1.21Z"/></g><g class="cls-25"><path class="cls-26" d="M244.16,260.93a3.37,3.37,0,0,1-1.33-.26,3.24,3.24,0,0,1-1.76-1.77,3.49,3.49,0,0,1,0-2.62,3.24,3.24,0,0,1,1.76-1.78,3.53,3.53,0,0,1,2.66,0,3.23,3.23,0,0,1,1.76,1.78,3.49,3.49,0,0,1,0,2.62,3.23,3.23,0,0,1-1.76,1.77A3.37,3.37,0,0,1,244.16,260.93Zm0-1.14a2.16,2.16,0,0,0,.84-.16,2.09,2.09,0,0,0,.68-.45,2,2,0,0,0,.46-.69,2.53,2.53,0,0,0,0-1.8,2,2,0,0,0-.46-.69,2.1,2.1,0,0,0-.68-.45,2.26,2.26,0,0,0-1.67,0,2.11,2.11,0,0,0-.68.45,2,2,0,0,0-.46.69,2.51,2.51,0,0,0,0,1.8,2,2,0,0,0,.46.69,2.09,2.09,0,0,0,.68.45A2.16,2.16,0,0,0,244.16,259.79Z"/><path class="cls-26" d="M248.48,254.39h1.19l2,3.39h.07l2-3.39h1.2v6.4h-1.2v-3.16l.07-1.07h-.07L252,259.43h-.72l-1.64-2.87h-.07l.07,1.07v3.16h-1.19Z"/><path class="cls-26" d="M257.35,255.53V257h2.57v1.14h-2.57v1.48h2.85v1.14h-4.06v-6.4h4.06v1.14Z"/></g></g></g></g></g></g></svg>