<svg xmlns="http://www.w3.org/2000/svg" viewBox="0 0 187.31 176.18"><defs><style>.cls-1{fill:#fff;}</style></defs><title>Asset 3</title><g id="Layer_2" data-name="Layer 2"><g id="Layer_1-2" data-name="Layer 1"><path class="cls-1" d="M170.41,27.12A56.66,56.66,0,0,0,130,10.27h-.1A56.66,56.66,0,0,0,89.6,27l-.3.33c-15.64,18.25-19.64,41.76-11.57,68a119,119,0,0,0,7.8,19,17.48,17.48,0,1,0,9.89-6,106.74,106.74,0,0,1-6.69-16.48C81.8,69.41,84.89,50.25,97.89,35a45.22,45.22,0,0,1,32-13.18H130a45.23,45.23,0,0,1,32.23,13.45C179.87,53,179.65,82,161.74,99.9L100,161.58a9,9,0,0,1-12.65,0L25.56,99.84C7.74,82,7.43,53.08,24.86,35.33A45.3,45.3,0,0,1,48.81,22.49a17.53,17.53,0,1,0,1-11.82,56.7,56.7,0,0,0-33.2,16.6C-5.18,49.51-4.84,85.71,17.43,108L79.16,169.7a20.48,20.48,0,0,0,28.92,0L169.87,108C192.25,85.66,192.49,49.36,170.41,27.12Zm-67.74,93.65A6,6,0,1,1,99,119.5,6,6,0,0,1,102.67,120.77ZM71.77,18a6,6,0,1,1-6-6A6,6,0,0,1,71.77,18Z"/><path class="cls-1" d="M93.63,176.18a20.81,20.81,0,0,1-14.82-6.13L17.07,108.32c-22.46-22.46-22.8-59-.78-81.4A56.87,56.87,0,0,1,49.51,10.22a18,18,0,1,1-1.06,12.85A44.73,44.73,0,0,0,25.22,35.68C8,53.24,8.29,81.86,25.91,99.48l61.74,61.74a8.46,8.46,0,0,0,11.95,0l61.79-61.68c17.71-17.71,17.94-46.41.5-64a45,45,0,0,0-63.65-.27c-12.86,15.12-15.91,34.12-9,56.43a105.86,105.86,0,0,0,6.49,16.06,18.06,18.06,0,1,1-10.76,6.45,118.85,118.85,0,0,1-7.68-18.84C69.13,69,73.17,45.37,88.92,27l.31-.34a57.17,57.17,0,0,1,40.7-16.87h.1a57.15,57.15,0,0,1,40.73,17c22.28,22.43,22,59-.54,81.62l-61.79,61.68A20.81,20.81,0,0,1,93.63,176.18ZM65.75,1A17.1,17.1,0,0,0,50.3,10.89l-.12.25-.27,0A55.88,55.88,0,0,0,17,27.62c-21.64,22-21.3,57.92.77,80l61.74,61.73a20,20,0,0,0,28.21,0l61.79-61.68c22.19-22.19,22.43-58.17.54-80.21h0a56.16,56.16,0,0,0-40-16.7h-.1A56.16,56.16,0,0,0,90,27.33l-.29.31C74.16,45.75,70.19,69.09,78.2,95.13a118,118,0,0,0,7.77,19l.15.29-.21.25a17,17,0,1,0,9.6-5.78l-.38.08-.17-.34A107,107,0,0,1,88.24,92c-7-22.66-3.85-42,9.27-57.41a46,46,0,0,1,65.09.24c17.82,17.95,17.6,47.27-.5,65.38L100.3,161.93a9.46,9.46,0,0,1-13.36,0L25.21,100.19c-18-18-18.33-47.26-.7-65.21A45.72,45.72,0,0,1,48.72,22l.46-.09.12.45A17,17,0,1,0,65.75,1ZM99,132a6.52,6.52,0,1,1,0-13,6.45,6.45,0,0,1,4,1.37h0A6.51,6.51,0,0,1,99,132Zm0-12a5.54,5.54,0,1,0,3.37,1.16h0A5.46,5.46,0,0,0,99,120ZM65.75,24.54A6.52,6.52,0,1,1,72.27,18,6.5,6.5,0,0,1,65.75,24.54Zm0-12A5.52,5.52,0,1,0,71.27,18,5.48,5.48,0,0,0,65.75,12.5Z"/></g></g></svg>