<svg xmlns="http://www.w3.org/2000/svg" viewBox="0 0 376.8 263.33"><defs><style>.cls-1{fill:#00a699;}.cls-2{fill:#e4eaf8;}.cls-3{fill:#72b1bb;}.cls-4{fill:#edeada;}.cls-5{fill:#ff5a5f;}.cls-6{fill:#38454f;}.cls-7{fill:#afb6bb;}.cls-8{fill:#839594;}.cls-9{fill:#cec9ae;}.cls-10{fill:#f7f7f7;}.cls-11{fill:#e0e0e0;}.cls-12,.cls-27{fill:#616161;}.cls-13{fill:#5f487b;}.cls-14{fill:#ffd7a3;}.cls-15{fill:#fdc88e;}.cls-16{fill:#ffe1b2;}.cls-17{fill:#7e5449;}.cls-18{fill:#484848;}.cls-19{fill:#d0d7dc;}.cls-20{fill:#039385;}.cls-21{fill:#e4ebf0;}.cls-22,.cls-25,.cls-26{fill:none;}.cls-22,.cls-24{stroke:#b1b1b1;}.cls-22,.cls-25{stroke-linecap:round;stroke-linejoin:round;}.cls-23{fill:#b1b1b1;}.cls-24{fill:#fff;stroke-width:0.25px;opacity:0.74;}.cls-24,.cls-26{stroke-miterlimit:10;}.cls-25,.cls-26{stroke:#ff5a5f;}.cls-25{stroke-width:2px;}.cls-27{font-size:8.94px;font-family:ProductSans-Bold, Product Sans;font-weight:700;}.cls-28,.cls-37{letter-spacing:-0.01em;}.cls-29{letter-spacing:-0.08em;}.cls-30,.cls-36{letter-spacing:-0.06em;}.cls-31,.cls-32{letter-spacing:-0.01em;}.cls-32,.cls-33,.cls-34,.cls-35,.cls-36,.cls-37{fill:#bdbdbd;}.cls-33{letter-spacing:-0.02em;}.cls-35{letter-spacing:-0.03em;}</style></defs><title>Asset 20</title><g id="Layer_2" data-name="Layer 2"><g id="Layer_1-2" data-name="Layer 1"><path class="cls-1" d="M209.25,14.56V58.92a3.37,3.37,0,0,1-3.37,3.37H165.71a3.37,3.37,0,0,1-3.37-3.37V3.37A3.37,3.37,0,0,1,165.71,0h29Z"/><rect class="cls-2" x="170.64" y="23.05" width="6.9" height="6.9" rx="0.92" ry="0.92"/><rect class="cls-2" x="180.93" y="23.05" width="12.89" height="1.99" rx="1" ry="1"/><rect class="cls-3" x="180.93" y="27.96" width="17.75" height="1.99" rx="1" ry="1"/><rect class="cls-2" x="170.64" y="35.09" width="6.9" height="6.9" rx="0.84" ry="0.84"/><rect class="cls-2" x="180.93" y="35.09" width="12.89" height="1.99" rx="1" ry="1"/><rect class="cls-3" x="180.93" y="40" width="17.75" height="1.99" rx="1" ry="1"/><rect class="cls-2" x="170.64" y="47.13" width="6.9" height="6.9" rx="0.84" ry="0.84"/><rect class="cls-2" x="180.93" y="47.13" width="12.89" height="1.99" rx="1" ry="1"/><rect class="cls-3" x="180.93" y="52.04" width="17.75" height="1.99" rx="1" ry="1"/><path class="cls-3" d="M209.25,14.56h-12A2.54,2.54,0,0,1,194.69,12V0Z"/><path class="cls-4" d="M209.91,241.25H161.67a1.66,1.66,0,0,1-1.66-1.66V204.43h51.55v35.17A1.66,1.66,0,0,1,209.91,241.25Z"/><path class="cls-5" d="M211.57,204.42H160v-8a1.66,1.66,0,0,1,1.66-1.66h48.24a1.66,1.66,0,0,1,1.66,1.66Z"/><circle class="cls-6" cx="177.51" cy="198.48" r="1.84"/><circle class="cls-6" cx="183.03" cy="198.48" r="1.84"/><circle class="cls-6" cx="188.56" cy="198.48" r="1.84"/><circle class="cls-6" cx="194.08" cy="198.48" r="1.84"/><path class="cls-7" d="M194.08,190.19a4.56,4.56,0,0,0-2.76.94,4.62,4.62,0,0,1,1.21,1.38,2.76,2.76,0,1,1,1.55,5,.92.92,0,1,0,0,1.84,4.6,4.6,0,0,0,0-9.21Z"/><path class="cls-8" d="M190.11,192.51a4.54,4.54,0,0,0-.63,2.28h1.84A2.76,2.76,0,0,0,190.11,192.51Z"/><path class="cls-8" d="M184.58,192.51a4.54,4.54,0,0,0-.63,2.28h1.84A2.76,2.76,0,0,0,184.58,192.51Z"/><path class="cls-7" d="M192.53,192.51a4.62,4.62,0,0,0-1.21-1.38,4.51,4.51,0,0,0-5.52,0,4.62,4.62,0,0,1,1.21,1.38,2.76,2.76,0,1,1,1.55,5,.92.92,0,1,0,0,1.84,4.61,4.61,0,0,0,4.6-4.6A4.54,4.54,0,0,0,192.53,192.51Z"/><path class="cls-8" d="M179.06,192.51a4.54,4.54,0,0,0-.63,2.28h1.84A2.76,2.76,0,0,0,179.06,192.51Z"/><path class="cls-7" d="M187,192.51a4.62,4.62,0,0,0-1.21-1.38,4.51,4.51,0,0,0-5.52,0,4.62,4.62,0,0,1,1.21,1.38,2.76,2.76,0,1,1,1.55,5,.92.92,0,0,0,0,1.84,4.61,4.61,0,0,0,4.6-4.6A4.54,4.54,0,0,0,187,192.51Z"/><path class="cls-7" d="M181.48,192.51a4.62,4.62,0,0,0-1.21-1.38,4.56,4.56,0,0,0-2.76-.94,4.61,4.61,0,0,0-4.6,4.6h1.84a2.76,2.76,0,1,1,2.76,2.76.92.92,0,1,0,0,1.84,4.61,4.61,0,0,0,4.6-4.6A4.54,4.54,0,0,0,181.48,192.51Z"/><circle class="cls-9" cx="171.06" cy="214.55" r="4.6"/><circle class="cls-9" cx="185.79" cy="214.55" r="4.6"/><circle class="cls-9" cx="200.52" cy="214.55" r="4.6"/><circle class="cls-9" cx="171.06" cy="229.28" r="4.6"/><circle class="cls-9" cx="185.79" cy="229.28" r="4.6"/><circle class="cls-1" cx="200.52" cy="229.28" r="4.6"/><polygon class="cls-4" points="314.62 160.51 314.62 98.33 346.78 98.33 346.78 106.9 359.65 106.9 359.65 115.48 376.8 115.48 376.8 160.51 314.62 160.51"/><rect class="cls-10" x="334.99" y="139.07" width="10.72" height="21.44"/><rect class="cls-11" x="345.71" y="139.07" width="10.72" height="21.44"/><rect class="cls-12" x="314.62" y="134.78" width="62.18" height="4.29"/><rect class="cls-12" x="314.62" y="156.22" width="20.37" height="4.29"/><rect class="cls-12" x="356.43" y="156.22" width="20.37" height="4.29"/><rect class="cls-9" x="321.05" y="102.61" width="6.43" height="10.72"/><rect class="cls-9" x="321.05" y="119.77" width="6.43" height="10.72"/><rect class="cls-9" x="333.91" y="102.61" width="6.43" height="10.72"/><rect class="cls-9" x="333.91" y="119.77" width="6.43" height="10.72"/><rect class="cls-9" x="346.78" y="111.19" width="6.43" height="19.3"/><polygon class="cls-5" points="370.37 122.98 367.15 122.98 367.15 119.77 362.86 119.77 362.86 122.98 359.65 122.98 359.65 127.27 362.86 127.27 362.86 130.49 367.15 130.49 367.15 127.27 370.37 127.27 370.37 122.98"/><rect class="cls-10" x="316.53" y="146.58" width="10.12" height="2.14" transform="translate(25.85 341.97) rotate(-57.97)"/><rect class="cls-10" x="322.96" y="146.57" width="10.12" height="2.14" transform="translate(28.88 347.42) rotate(-57.97)"/><rect class="cls-10" x="358.34" y="146.57" width="10.12" height="2.14" transform="translate(45.49 377.41) rotate(-57.97)"/><rect class="cls-10" x="364.77" y="146.58" width="10.12" height="2.14" transform="translate(48.51 382.87) rotate(-57.97)"/><rect class="cls-13" x="340.35" y="148.71" width="2.14" height="3.22"/><rect class="cls-13" x="348.92" y="148.71" width="2.14" height="3.22"/><path class="cls-14" d="M19.77,142.46c2.95-1.9,2.62-7.54,2.62-8.86h23.7c0,1.32-.37,7,2.58,8.86L34.24,158.63Z"/><path class="cls-15" d="M43.46,148.09l5.21-5.63c-2.95-1.9-2.58-7.54-2.58-8.86H22.39C24.09,138.49,35.34,146.88,43.46,148.09Z"/><path class="cls-16" d="M52.68,116.49c0,10.55-6.07,23.7-18.44,23.7S15.8,127,15.8,116.49,24.06,102,34.24,102,52.68,105.94,52.68,116.49Z"/><path class="cls-16" d="M16.42,118.79c-2-.49-3.27.56-3.27,2.63,0,2.74,2.65,9.47,5.45,5.27S16.42,118.79,16.42,118.79Z"/><path class="cls-16" d="M51.72,118.79c2.15-.49,3.57.56,3.57,2.63,0,2.74-2.9,9.47-5.94,5.27S51.72,118.79,51.72,118.79Z"/><path class="cls-17" d="M19.75,111.22c-.55,1.58-1.32,10.54-1.32,10.54L15.8,120.3l-.74-9.65Z"/><path class="cls-17" d="M48.72,111.22c.55,1.58,1.32,10.54,1.32,10.54l2.63-1.46.74-9.65Z"/><path class="cls-1" d="M40.83,171.75l7.89,0h-29l7.89,0-10.46-30,1.08-.34c4.43,3.39,10.76,8,16,8s11.53-4.63,16-8l1.08.34Z"/><path class="cls-18" d="M36.87,153.36a1.32,1.32,0,0,1-1.32,1.32H32.92a1.32,1.32,0,0,1-1.32-1.32v-2.63a1.32,1.32,0,0,1,1.32-1.32h2.63a1.32,1.32,0,0,1,1.32,1.32Z"/><circle class="cls-19" cx="34.24" cy="161.26" r="1.32"/><path class="cls-20" d="M34.24,149.41l-5.49,5.49a1.32,1.32,0,0,1-2-.16l-9.63-13.24,3.07-3.07a1.32,1.32,0,0,1,1.81,0Z"/><path class="cls-20" d="M34.24,149.41l5.49,5.49a1.32,1.32,0,0,0,2-.16l9.63-13.24-3.07-3.07a1.32,1.32,0,0,0-1.81,0Z"/><polygon class="cls-18" points="36.05 153.94 34.24 154.68 32.43 153.94 31.61 171.79 34.24 171.79 36.87 171.79 36.05 153.94"/><path class="cls-21" d="M65,171.75a3.94,3.94,0,0,0,3.49-3.9V157.78a15.41,15.41,0,0,0-10-13.75l-7.18-2.3h0l-10.44,30H65Z"/><path class="cls-21" d="M17.21,141.73h0L10,144A15.41,15.41,0,0,0,0,157.78v10.07a3.94,3.94,0,0,0,3.49,3.9H27.65Z"/><path class="cls-19" d="M27.65,171.75l-7.89,0-8.51-14.89a1.31,1.31,0,0,1,.11-1.74L14.49,152l-2.71-1.8a1.3,1.3,0,0,1-.26-2l5.3-6.42.3-.35.08.23Z"/><path class="cls-19" d="M57.23,156.91,48.72,171.8l-7.89,0,10.46-30,.08-.23.3.35,5.3,6.42a1.3,1.3,0,0,1-.26,2L54,152l3.13,3.13A1.31,1.31,0,0,1,57.23,156.91Z"/><path class="cls-21" d="M54,111.22H14.49c0-7,.58-10,2.2-16.76,12.41-6.32,22.7-6.32,35.11,0C53.42,101.54,54,104.2,54,111.22Z"/><path class="cls-22" d="M134.69,220.46H50.22a16.1,16.1,0,0,1-16.05-16.05v-15"/><polygon class="cls-23" points="133.23 215.47 141.86 220.46 133.23 225.45 133.23 215.47"/><path class="cls-22" d="M345.71,190.86v13.55a16.1,16.1,0,0,1-16.05,16.05H231.48"/><polygon class="cls-23" points="340.72 192.32 345.71 183.68 350.69 192.32 340.72 192.32"/><path class="cls-22" d="M233.31,41.06h96.35a16.1,16.1,0,0,1,16.05,16.05V76.55"/><polygon class="cls-23" points="234.76 46.05 226.13 41.06 234.76 36.08 234.76 46.05"/><path class="cls-22" d="M34.17,65.73V57.12A16.1,16.1,0,0,1,50.22,41.06h92.54"/><polygon class="cls-23" points="39.16 64.27 34.17 72.91 29.18 64.27 39.16 64.27"/><circle class="cls-24" cx="63.89" cy="164.4" r="13.27"/><polygon class="cls-4" points="64.47 155.03 57.6 161.41 57.6 162.79 57.6 171.75 71.34 171.75 71.34 162.79 71.34 161.41 64.47 155.03"/><path class="cls-12" d="M66.56,171.75H62.38v-5.07a2.09,2.09,0,0,1,2.09-2.09h0a2.09,2.09,0,0,1,2.09,2.09Z"/><polyline class="cls-25" points="56.11 162.79 64.47 155.03 72.83 162.79"/><path class="cls-5" d="M262.76,124.47h-.52v1.71a.32.32,0,0,1-.07.22.22.22,0,0,1-.17.07.22.22,0,0,1-.17-.07.31.31,0,0,1-.07-.22v-1.71h-.52a.26.26,0,0,1-.18-.05.2.2,0,0,1,0-.29.27.27,0,0,1,.18-.05h1.52a.27.27,0,0,1,.18.05.18.18,0,0,1,.06.14.18.18,0,0,1-.06.14A.27.27,0,0,1,262.76,124.47Z"/><path class="cls-5" d="M264.09,126.08l-.38-1.5v1.63a.3.3,0,0,1-.06.2.22.22,0,0,1-.32,0,.29.29,0,0,1-.06-.2v-1.87a.23.23,0,0,1,.08-.21.39.39,0,0,1,.22-.05h.15a.57.57,0,0,1,.19,0,.16.16,0,0,1,.09.09,1.34,1.34,0,0,1,.07.2l.34,1.29.34-1.29a1.34,1.34,0,0,1,.07-.2.16.16,0,0,1,.09-.09.57.57,0,0,1,.19,0h.15a.39.39,0,0,1,.22.05.23.23,0,0,1,.08.21v1.87a.3.3,0,0,1-.06.2.21.21,0,0,1-.16.07.2.2,0,0,1-.16-.07.29.29,0,0,1-.06-.2v-1.63l-.38,1.5c0,.1,0,.17-.06.21a.3.3,0,0,1-.09.12.25.25,0,0,1-.17.06.26.26,0,0,1-.14,0,.26.26,0,0,1-.09-.09.53.53,0,0,1-.05-.12Z"/><path class="cls-5" d="M160,116.14a13.34,13.34,0,0,0-9.5-4h0A13.34,13.34,0,0,0,141,116.1l-.07.08c-3.68,4.3-4.62,9.83-2.72,16a28,28,0,0,0,1.84,4.48,4.12,4.12,0,1,0,2.33-1.4,25.13,25.13,0,0,1-1.57-3.88c-1.63-5.29-.9-9.8,2.16-13.4a10.65,10.65,0,0,1,7.54-3.1h0a10.65,10.65,0,0,1,7.59,3.17,10.8,10.8,0,0,1-.12,15.22l-14.55,14.52a2.11,2.11,0,0,1-3,0l-14.53-14.53a10.82,10.82,0,0,1-.17-15.18,10.66,10.66,0,0,1,5.64-3,4.13,4.13,0,1,0,.25-2.78,13.35,13.35,0,0,0-7.82,3.91,13.53,13.53,0,0,0,.18,19l14.53,14.53a4.82,4.82,0,0,0,6.81,0l14.55-14.52A13.52,13.52,0,0,0,160,116.14Zm-15.95,22a1.41,1.41,0,1,1-.87-.3A1.41,1.41,0,0,1,144.06,138.18ZM136.79,114a1.42,1.42,0,1,1-1.42-1.42A1.42,1.42,0,0,1,136.79,114Z"/><path class="cls-26" d="M160,116.14a13.34,13.34,0,0,0-9.5-4h0A13.34,13.34,0,0,0,141,116.1l-.07.08c-3.68,4.3-4.62,9.83-2.72,16a28,28,0,0,0,1.84,4.48,4.12,4.12,0,1,0,2.33-1.4,25.13,25.13,0,0,1-1.57-3.88c-1.63-5.29-.9-9.8,2.16-13.4a10.65,10.65,0,0,1,7.54-3.1h0a10.65,10.65,0,0,1,7.59,3.17,10.8,10.8,0,0,1-.12,15.22l-14.55,14.52a2.11,2.11,0,0,1-3,0l-14.53-14.53a10.82,10.82,0,0,1-.17-15.18,10.66,10.66,0,0,1,5.64-3,4.13,4.13,0,1,0,.25-2.78,13.35,13.35,0,0,0-7.82,3.91,13.53,13.53,0,0,0,.18,19l14.53,14.53a4.82,4.82,0,0,0,6.81,0l14.55-14.52A13.52,13.52,0,0,0,160,116.14Zm-15.95,22a1.41,1.41,0,1,1-.87-.3A1.41,1.41,0,0,1,144.06,138.18ZM136.79,114a1.42,1.42,0,1,1-1.42-1.42A1.42,1.42,0,0,1,136.79,114Z"/><path class="cls-5" d="M182,123.11a2.17,2.17,0,0,0-.63-.83,1.67,1.67,0,0,0-1.07-.35H180a1.67,1.67,0,0,0-1.07.35,2.17,2.17,0,0,0-.64.84l-5.83,13.77a1.61,1.61,0,0,0-.15.62,1.42,1.42,0,0,0,.4,1h0a1.39,1.39,0,0,0,1,.42,1.45,1.45,0,0,0,.81-.24,1.51,1.51,0,0,0,.55-.65l1.38-3.32h7.23l1.39,3.33a1.5,1.5,0,0,0,.55.64,1.45,1.45,0,0,0,.81.24,1.39,1.39,0,0,0,1-.42,1.42,1.42,0,0,0,.4-1,1.63,1.63,0,0,0-.15-.62Zm.66,8.9h-4.95l2.47-6Z"/><path class="cls-5" d="M198.35,126.23a1.48,1.48,0,0,0-1.32.85L193.91,135l-3.13-7.93a1.44,1.44,0,0,0-2.34-.4,1.44,1.44,0,0,0-.41,1,1.66,1.66,0,0,0,.15.64l4,9.52a1.84,1.84,0,0,0,.64.78h0a1.7,1.7,0,0,0,1,.31H194a1.7,1.7,0,0,0,1-.31,1.85,1.85,0,0,0,.65-.78l4-9.51a1.66,1.66,0,0,0,.15-.64,1.44,1.44,0,0,0-.41-1A1.4,1.4,0,0,0,198.35,126.23Z"/><path class="cls-5" d="M210,126.92a7.05,7.05,0,0,0-6.56,0,5.56,5.56,0,0,0-2.21,2.31,7.73,7.73,0,0,0,0,6.71,5.55,5.55,0,0,0,2.21,2.31h0a7.05,7.05,0,0,0,6.56,0,5.63,5.63,0,0,0,2.22-2.3,7.63,7.63,0,0,0,0-6.72A5.63,5.63,0,0,0,210,126.92Zm-1.66,9a3.58,3.58,0,0,1-3.24,0,3,3,0,0,1-1.24-1.21,4.28,4.28,0,0,1-.49-2.17,4.23,4.23,0,0,1,.49-2.15,2.92,2.92,0,0,1,1.23-1.2,3.67,3.67,0,0,1,1.64-.38,3.62,3.62,0,0,1,1.61.38,3,3,0,0,1,1.25,1.2,4.15,4.15,0,0,1,.5,2.15,4.2,4.2,0,0,1-.5,2.17A3.1,3.1,0,0,1,208.37,135.94Z"/><path class="cls-5" d="M221.1,128.87a4.08,4.08,0,0,1,1.21.15,8.35,8.35,0,0,1,1.22.53,1.28,1.28,0,0,0,1.61-.23,1.31,1.31,0,0,0,.37-.91,1.32,1.32,0,0,0-.65-1.15,8.35,8.35,0,0,0-1.72-.83,6.77,6.77,0,0,0-2.23-.33,6.88,6.88,0,0,0-3.23.78,6.06,6.06,0,0,0-2.39,2.25,7.05,7.05,0,0,0,0,6.88,6.06,6.06,0,0,0,2.39,2.25,6.88,6.88,0,0,0,3.23.78,6.77,6.77,0,0,0,2.23-.33,8.37,8.37,0,0,0,1.72-.83,1.32,1.32,0,0,0,.27-2.05,1.22,1.22,0,0,0-.91-.42,1.44,1.44,0,0,0-.69.18,8.37,8.37,0,0,1-1.23.53,4.09,4.09,0,0,1-1.21.15,3.72,3.72,0,0,1-2.8-1,4.13,4.13,0,0,1,0-5.39A3.72,3.72,0,0,1,221.1,128.87Z"/><path class="cls-5" d="M237,126.23a1.43,1.43,0,0,0-1,.41,1.39,1.39,0,0,0-.43,1v6.72a6.92,6.92,0,0,1-1.52,1.4,3.21,3.21,0,0,1-1.82.53c-1.46,0-2.11-.73-2.11-2.38v-6.27a1.43,1.43,0,0,0-1.44-1.44,1.43,1.43,0,0,0-1,.41,1.39,1.39,0,0,0-.43,1v6.49a5.61,5.61,0,0,0,.53,2.44,4.28,4.28,0,0,0,1.57,1.79h0a4.38,4.38,0,0,0,2.41.66,5.16,5.16,0,0,0,2.58-.63,7.56,7.56,0,0,0,1.26-.91,1.46,1.46,0,0,0,1.46,1.42,1.39,1.39,0,0,0,1-.43,1.44,1.44,0,0,0,.41-1v-9.81a1.43,1.43,0,0,0-1.44-1.44Z"/><path class="cls-5" d="M247.43,126.11h-.11a4.43,4.43,0,0,0-3.18,1.46,1.47,1.47,0,0,0-1.46-1.34,1.39,1.39,0,0,0-1,.43,1.43,1.43,0,0,0-.41,1v9.81a1.43,1.43,0,0,0,1.44,1.44,1.44,1.44,0,0,0,1-.41,1.39,1.39,0,0,0,.43-1v-6.83a4.22,4.22,0,0,1,1.33-1.25,3.51,3.51,0,0,1,1.8-.48h.11a1.47,1.47,0,0,0,1-.38,1.34,1.34,0,0,0,.43-1,1.42,1.42,0,0,0-.4-1A1.38,1.38,0,0,0,247.43,126.11Z"/><path class="cls-5" d="M259,135.49a1.32,1.32,0,0,0-.6.13,6.58,6.58,0,0,1-1.32.5,6.48,6.48,0,0,1-1.58.17,3.72,3.72,0,0,1-2.54-.79,3.14,3.14,0,0,1-1-1.78h7.27a1.41,1.41,0,0,0,1.46-1.44,6.91,6.91,0,0,0-.68-3,5.53,5.53,0,0,0-2-2.27,5.75,5.75,0,0,0-3.15-.85,5.68,5.68,0,0,0-3.27.92,5.52,5.52,0,0,0-2,2.39,7.89,7.89,0,0,0-.63,3.16,6.52,6.52,0,0,0,1.68,4.76,6.26,6.26,0,0,0,4.65,1.71,7.55,7.55,0,0,0,4.21-1.06,1.37,1.37,0,0,0,.8-1.2,1.25,1.25,0,0,0-.41-.94A1.32,1.32,0,0,0,259,135.49Zm-7-4.28a3.08,3.08,0,0,1,.46-1.24,2.65,2.65,0,0,1,1.09-1,3.09,3.09,0,0,1,2.72,0,2.76,2.76,0,0,1,1.11,1,3,3,0,0,1,.46,1.23Z"/><text class="cls-27" transform="translate(125.83 260.79)"><tspan class="cls-28">C</tspan><tspan x="6.47" y="0">ONSU</tspan><tspan class="cls-29" x="31.41" y="0">L</tspan><tspan class="cls-30" x="35.51" y="0">TA</tspan><tspan x="45.96" y="0">T</tspan><tspan class="cls-31" x="51.17" y="0">I</tspan><tspan x="53.58" y="0">ON </tspan><tspan class="cls-32" x="69.36" y="0">B</tspan><tspan class="cls-33" x="74.89" y="0">A</tspan><tspan class="cls-34" x="81.11" y="0">CK</tspan><tspan class="cls-35" x="93.66" y="0"> </tspan><tspan class="cls-36" x="95.35" y="0">A</tspan><tspan class="cls-34" x="101.17" y="0">T </tspan><tspan class="cls-37" x="108.35" y="0">H</tspan><tspan class="cls-34" x="114.66" y="0">OME</tspan></text></g></g></svg>